<svg width="332" height="372" xmlns="http://www.w3.org/2000/svg" xmlns:xlink="http://www.w3.org/1999/xlink" xml:space="preserve" overflow="hidden"><g transform="translate(-601 -1106)"><path d="M604.5 1279.09C672.505 1202.51 740.51 1125.93 758.697 1157.99 776.885 1190.04 685.157 1449.26 713.624 1471.42 742.091 1493.58 835.796 1392.27 929.5 1290.96" stroke="#B6B8E8" stroke-width="6.875" stroke-miterlimit="8" fill="none" fill-rule="evenodd"/><path d="M763.793 1108.05C766.211 1105.65 770.114 1105.67 772.512 1108.08L905.528 1242.2C907.926 1244.62 907.91 1248.52 905.492 1250.92L887.983 1268.29C885.566 1270.68 881.662 1270.67 879.264 1268.25L746.248 1134.13C743.85 1131.71 743.866 1127.81 746.284 1125.41Z" fill="#B6B8E8" fill-rule="evenodd"/><path d="M905.64 1242.32 930.577 1293.72 879.376 1268.36Z" fill="#B6B8E8" fill-rule="evenodd"/></g></svg>