<svg width="351" height="232" xmlns="http://www.w3.org/2000/svg" xmlns:xlink="http://www.w3.org/1999/xlink" xml:space="preserve" overflow="hidden"><defs><clipPath id="clip0"><rect x="578" y="644" width="351" height="232"/></clipPath></defs><g clip-path="url(#clip0)" transform="translate(-578 -644)"><path d="M887 730C892.523 730 897 734.477 897 740L897 780C897 785.523 892.523 790 887 790L629 790C623.477 790 619 785.523 619 780L619 740C619 734.477 623.477 730 629 730Z" fill="#B6B8E8" fill-rule="evenodd"/><path d="M578 654C578 648.477 582.477 644 588 644L628 644C633.523 644 638 648.477 638 654L638 866C638 871.523 633.523 876 628 876L588 876C582.477 876 578 871.523 578 866Z" fill="#B6B8E8" fill-rule="evenodd"/><path d="M870 653.833C870 648.402 874.403 644 879.834 644L919.167 644C924.598 644 929 648.402 929 653.833L929 866.166C929 871.597 924.598 876 919.167 876L879.834 876C874.403 876 870 871.597 870 866.166Z" fill="#B6B8E8" fill-rule="evenodd"/></g></svg>